<?xml version="1.0" standalone="no"?><!DOCTYPE svg PUBLIC "-//W3C//DTD SVG 1.1//EN" "http://www.w3.org/Graphics/SVG/1.1/DTD/svg11.dtd"><svg t="1755021085392" class="icon" viewBox="0 0 1024 1024" version="1.1" xmlns="http://www.w3.org/2000/svg" p-id="1701" xmlns:xlink="http://www.w3.org/1999/xlink" width="200" height="200"><path d="M568.13568 777.33888h78.2336a131.52256 131.52256 0 0 0 130.9696-130.9696V397.2096A131.54304 131.54304 0 0 0 646.36928 266.24h-79.872a3.44064 3.44064 0 0 0-3.19488 3.19488V774.144c-0.1024 1.61792 1.61792 3.19488 4.83328 3.19488z m97.46432-281.088a51.0976 51.0976 0 0 1 0 102.17472 50.44224 50.44224 0 0 1-51.2-51.2 49.47968 49.47968 0 0 1 51.2-50.97472zM509.00992 266.24h-111.80032a131.56352 131.56352 0 0 0-130.9696 130.9696v249.15968a131.54304 131.54304 0 0 0 130.9696 130.9696h111.80032a3.44064 3.44064 0 0 0 3.19488-3.1744V269.43488A3.39968 3.39968 0 0 0 509.00992 266.24z m-36.72064 469.58592h-75.07968a89.31328 89.31328 0 0 1-89.45664-89.45664V397.2096a89.31328 89.31328 0 0 1 89.45664-89.45664h73.46176z m-126.17728-316.27264a47.104 47.104 0 0 0 47.9232 47.9232 47.104 47.104 0 0 0 47.9232-47.9232 47.104 47.104 0 0 0-47.9232-47.9232 47.104 47.104 0 0 0-47.9232 47.9232z" fill="#E70012" p-id="1702"></path></svg>