<?xml version="1.0" standalone="no"?><!DOCTYPE svg PUBLIC "-//W3C//DTD SVG 1.1//EN" "http://www.w3.org/Graphics/SVG/1.1/DTD/svg11.dtd"><svg t="1755021159365" class="icon" viewBox="0 0 1024 1024" version="1.1" xmlns="http://www.w3.org/2000/svg" p-id="5463" xmlns:xlink="http://www.w3.org/1999/xlink" width="200" height="200"><path d="M776.032 193.32l-11.703 12.65a388.758 388.758 0 0 0-532.201 565.75l-76.905 81.585a500.102 500.102 0 0 1 655.36-752.326 616.852 616.852 0 0 0 147.679-45.251L791.078 222.912zM297.329 841.658l10.031 19.338 17.833-19.17a388.312 388.312 0 0 0 516.598-547.694l78.576-83.592a500.492 500.492 0 0 1-608.549 749.874l-166.626 63.307a889.417 889.417 0 0 0 152.137-182.23z m270.838-125.053V597.57a110.564 110.564 0 0 0 0-192.038V286.497a221.908 221.908 0 0 1 0 430.108zM456.71 405.532a110.564 110.564 0 0 0 0 192.038v119.035a221.908 221.908 0 0 1 0-430.108v119.035z" fill="#2C2C2C" p-id="5464"></path></svg>